<?xml version="1.0" encoding="utf-8"?><svg viewBox="0 0 200 27" xmlns="http://www.w3.org/2000/svg" xmlns:xlink="http://www.w3.org/1999/xlink"><style>:root>svg{display:none}:root>svg:target{display:block}</style><svg viewBox="0 0 200 20" fill="none" id="logo" xmlns="http://www.w3.org/2000/svg"><path d="m10.537 15-1.035-3.398H4.297L3.262 15H0L5.04.664h3.7L13.8 15h-3.262ZM8.78 9.062l-1.035-3.32a37.922 37.922 0 0 0-.264-.85 94.97 94.97 0 0 0-.322-1.064c-.104-.364-.189-.68-.254-.947-.065.267-.156.599-.273.996a97.05 97.05 0 0 1-.547 1.865l-1.025 3.32h3.72Zm13.75-4.98h3.282l-4.327 5.234L26.191 15h-3.378L18.35 9.463V15H15.37V4.082h2.979v5.303l4.18-5.303Zm8.106 0v4.316c0 .222-.01.502-.03.84-.013.332-.032.67-.058 1.016a48.68 48.68 0 0 1-.078.928c-.026.273-.046.459-.059.556l5.04-7.656h3.583V15h-2.88v-4.355c0-.358.012-.752.038-1.182.026-.436.056-.846.088-1.23.033-.385.056-.674.069-.87L31.328 15h-3.574V4.082h2.88Zm25.293 0V15h-2.783V9.639c0-.528.01-1.045.029-1.553.02-.508.049-.977.088-1.406h-.059L50.185 15H47.95l-3.066-8.34h-.078c.052.436.088.905.107 1.406.02.502.03 1.052.03 1.65V15h-2.774V4.082h4.219l2.715 7.402 2.763-7.402h4.063Zm13.056 5.44c0 .91-.123 1.718-.37 2.421a4.772 4.772 0 0 1-1.065 1.787 4.476 4.476 0 0 1-1.68 1.094c-.65.248-1.387.371-2.207.371a5.866 5.866 0 0 1-2.119-.37 4.711 4.711 0 0 1-1.67-1.095 5.1 5.1 0 0 1-1.094-1.787c-.254-.703-.38-1.51-.38-2.422 0-1.21.214-2.236.644-3.076.43-.84 1.042-1.478 1.836-1.914.794-.436 1.741-.654 2.842-.654 1.022 0 1.927.218 2.715.654.794.436 1.416 1.074 1.865 1.914.456.84.683 1.866.683 3.076Zm-7.548 0c0 .716.078 1.318.234 1.806.156.488.4.856.732 1.104.332.247.765.37 1.3.37.526 0 .953-.123 1.279-.37.332-.248.572-.616.722-1.104.156-.488.234-1.09.234-1.807 0-.722-.078-1.321-.234-1.796-.15-.482-.39-.843-.722-1.084-.333-.241-.765-.362-1.3-.362-.787 0-1.36.27-1.718.81-.352.541-.528 1.352-.528 2.432Zm19.687-2.579c0 .586-.186 1.088-.557 1.504-.364.41-.904.674-1.62.791v.078c.755.092 1.363.355 1.826.791.462.43.693.974.693 1.631 0 .625-.163 1.185-.488 1.68-.326.488-.844.876-1.553 1.162-.71.28-1.638.42-2.783.42h-5.196V4.082h5.196c.852 0 1.617.091 2.294.273.678.176 1.212.472 1.602.89.39.416.586.982.586 1.698Zm-2.744 4.639c0-.43-.17-.739-.508-.928-.332-.195-.827-.293-1.484-.293h-1.963v2.579h2.021c.56 0 1.022-.105 1.387-.313.365-.208.547-.557.547-1.045Zm-.273-4.404c0-.339-.134-.59-.4-.752-.268-.163-.662-.244-1.183-.244h-2.1V8.34h1.759c.631 0 1.11-.091 1.435-.274.326-.182.489-.478.489-.888ZM98.193 15l-1.035-3.398h-5.205L90.918 15h-3.262L92.696.664h3.7L101.456 15h-3.262Zm-1.757-5.938L95.4 5.742a37.841 37.841 0 0 0-.263-.85 95.165 95.165 0 0 0-.323-1.064c-.104-.364-.188-.68-.253-.947a22.31 22.31 0 0 1-.274.996 96.83 96.83 0 0 1-.547 1.865l-1.025 3.32h3.72ZM112.803 15h-2.979V6.318h-2.744c-.137 1.602-.299 2.966-.488 4.092-.189 1.127-.43 2.044-.723 2.754-.293.703-.657 1.218-1.094 1.543-.436.326-.973.488-1.611.488a5.2 5.2 0 0 1-.947-.078 3.27 3.27 0 0 1-.752-.234V12.5c.143.059.296.107.459.146.163.033.329.05.498.05a.8.8 0 0 0 .537-.225c.169-.15.329-.407.479-.772.149-.37.289-.882.419-1.533.137-.651.261-1.475.372-2.47.11-.997.214-2.201.312-3.614h8.262V15Zm7.636-11.123c1.01 0 1.879.195 2.608.586a4.003 4.003 0 0 1 1.689 1.68c.397.735.596 1.634.596 2.695v1.445h-7.041c.033.84.283 1.5.752 1.983.475.475 1.133.713 1.973.713.696 0 1.334-.072 1.914-.215a9.754 9.754 0 0 0 1.787-.645v2.305a7.107 7.107 0 0 1-1.699.586c-.586.123-1.299.185-2.139.185-1.094 0-2.064-.202-2.91-.605a4.521 4.521 0 0 1-1.983-1.846c-.475-.827-.713-1.868-.713-3.125 0-1.276.215-2.337.645-3.183.436-.853 1.042-1.491 1.816-1.915.775-.43 1.677-.644 2.705-.644Zm.02 2.12c-.579 0-1.061.185-1.445.556-.378.37-.596.954-.655 1.748h4.18a2.938 2.938 0 0 0-.244-1.182 1.837 1.837 0 0 0-.684-.82c-.299-.202-.683-.303-1.152-.303Zm14.453-1.915h3.281l-4.326 5.234L138.574 15h-3.379l-4.463-5.537V15h-2.978V4.082h2.978v5.303l4.18-5.303Zm9.658 11.113c-1.08 0-2.002-.195-2.763-.586-.762-.397-1.342-1.009-1.739-1.836-.397-.826-.595-1.884-.595-3.173 0-1.335.224-2.422.673-3.262.456-.846 1.084-1.468 1.885-1.865.808-.397 1.742-.596 2.803-.596.755 0 1.406.075 1.953.225a7.592 7.592 0 0 1 1.445.517l-.878 2.305a13.902 13.902 0 0 0-1.309-.46 4.115 4.115 0 0 0-1.211-.185c-.521 0-.954.124-1.299.371-.345.241-.602.606-.771 1.094-.17.488-.254 1.1-.254 1.836 0 .723.091 1.322.273 1.797.182.475.446.83.791 1.064.345.228.765.342 1.26.342.618 0 1.169-.081 1.65-.244a6.46 6.46 0 0 0 1.407-.703v2.549a4.894 4.894 0 0 1-1.436.615c-.495.13-1.123.195-1.885.195Zm10.332-11.338c1.465 0 2.588.32 3.369.957.782.638 1.172 1.609 1.172 2.91V15h-2.08l-.576-1.484h-.078a5.57 5.57 0 0 1-.957.957c-.326.247-.7.43-1.123.546-.423.118-.938.176-1.543.176-.645 0-1.224-.123-1.738-.37a2.762 2.762 0 0 1-1.202-1.134c-.292-.514-.439-1.165-.439-1.953 0-1.159.407-2.011 1.221-2.558.814-.554 2.034-.86 3.662-.918l1.894-.059v-.478c0-.573-.149-.993-.449-1.26-.299-.267-.716-.4-1.25-.4-.527 0-1.045.074-1.553.224-.507.15-1.015.339-1.523.566l-.986-2.011a8.461 8.461 0 0 1 1.943-.723 9.429 9.429 0 0 1 2.236-.264Zm1.582 6.084-1.152.04c-.964.026-1.634.198-2.012.517-.371.32-.556.739-.556 1.26 0 .456.133.781.4.976.267.19.615.284 1.045.284.638 0 1.175-.19 1.611-.567.443-.377.664-.915.664-1.611V9.94Zm9.014-5.859v4.2h4.16v-4.2h2.979V15h-2.979v-4.502h-4.16V15h-2.978V4.082h2.978Zm20.078 0v8.74h1.602v6.094h-2.676V15h-7.344v3.916h-2.676v-6.094h.918c.482-.735.886-1.575 1.211-2.52.332-.943.599-1.943.801-2.997a29.56 29.56 0 0 0 .449-3.223h7.715Zm-2.978 2.236h-2.237a28.166 28.166 0 0 1-.4 2.344 18.927 18.927 0 0 1-.586 2.168c-.234.69-.521 1.354-.859 1.992h4.082V6.318Zm12.519-2.441c1.231 0 2.223.478 2.979 1.436.761.957 1.142 2.36 1.142 4.208 0 1.237-.179 2.28-.537 3.125-.358.84-.853 1.475-1.484 1.905-.632.43-1.358.644-2.178.644-.527 0-.98-.065-1.357-.195-.378-.137-.7-.31-.967-.518a4.633 4.633 0 0 1-.694-.683h-.156a8.46 8.46 0 0 1 .156 1.602v4.404h-2.978V4.082h2.422l.42 1.416h.136c.196-.293.433-.563.713-.81.28-.248.616-.443 1.006-.586.397-.15.856-.225 1.377-.225Zm-.957 2.383c-.521 0-.934.107-1.24.322-.306.215-.531.537-.674.967-.137.43-.211.973-.225 1.63v.323c0 .703.066 1.299.196 1.787.137.488.361.86.674 1.113.319.254.755.381 1.308.381.456 0 .83-.127 1.123-.38.293-.255.511-.626.655-1.114.149-.495.224-1.097.224-1.807 0-1.067-.166-1.871-.498-2.412-.332-.54-.846-.81-1.543-.81Z" fill="#D2E9E3"/></svg></svg>